<?xml version="1.0" encoding="iso-8859-1"?>
<!-- Uploaded to: SVG Repo, www.svgrepo.com, Generator: SVG Repo Mixer Tools -->
<svg fill="#000000" height="800px" width="800px" version="1.1" id="Layer_1" xmlns="http://www.w3.org/2000/svg" xmlns:xlink="http://www.w3.org/1999/xlink" 
	 viewBox="0 0 512.001 512.001" xml:space="preserve">
<g>
	<g>
		<path d="M480.14,101.7H292.423c2.653,24.367-15.947,45.304-39.857,46.198l-59.641,2.228v38.766
			c11.797,4.759,24.789,8.49,33.169,24.855h57.99c15.344,0,27.783,12.439,27.783,27.783c0,15.344-12.439,27.783-27.783,27.783
			h-71.787c-5.748,4.011-12.401,6.596-19.373,7.505v52.85c0,6.138,4.975,11.113,11.113,11.113h91.946l-73.687,147.078
			c-4.123,8.232-0.793,18.247,7.437,22.371c8.232,4.123,18.248,0.795,22.371-7.437l81.17-162.013h17.629l81.171,162.013
			c2.924,5.834,8.807,9.206,14.917,9.206c2.509,0,5.058-0.569,7.455-1.769c8.232-4.124,11.56-14.14,7.437-22.371l-73.688-147.078
			h91.947c6.138,0,11.113-4.975,11.113-11.113V112.814C491.253,106.676,486.277,101.7,480.14,101.7z M282.353,181.912
			l-36.398,20.336c-5.359,2.993-12.129,1.076-15.122-4.282c-2.993-5.358-1.077-12.129,4.282-15.122l42.121-23.533
			c3.532-1.971,7.856-1.871,11.29,0.266l31.787,19.773l47.049-12.433c2.958-0.782,6.109-0.309,8.708,1.308l55.486,34.513
			c5.211,3.242,6.808,10.094,3.566,15.306c-3.241,5.21-10.092,6.81-15.306,3.566l-51.414-31.979l-47.049,12.433
			c-2.958,0.782-6.11,0.309-8.708-1.308L282.353,181.912z M437.645,293.972c-0.7,6.097-6.206,10.473-12.308,9.774l-68.905-7.907
			c-118.638,17.067-111.189,16.051-112.375,16.051c-5.437,0-10.189-3.994-10.985-9.533c-0.875-6.075,3.342-11.709,9.417-12.582
			l112.199-16.14c0.945-0.136,1.901-0.15,2.849-0.041l70.333,8.07C433.969,282.364,438.345,287.874,437.645,293.972z"/>
	</g>
</g>
<g>
	<g>
		<path d="M79.212,0C54.278,0,34.065,20.213,34.065,45.146s20.213,45.146,45.146,45.146c24.842,0,45.146-20.149,45.146-45.146
			C124.358,20.213,104.145,0,79.212,0z"/>
	</g>
</g>
<g>
	<g>
		<path d="M284.081,230.417h-75.222c-1.151-7.695-6.31-14.152-13.378-17.003l-63.87-25.766l-31.44-54.665l36.494,33.215
			c0-10.11,0-2.828,0-25.186l32.708-9.911l82.448-3.081c12.022-0.449,21.404-10.559,20.954-22.581
			c-0.45-12.022-10.555-21.411-22.581-20.954l-85.259,3.186c-1.866,0.07-3.716,0.379-5.503,0.92l-56.244,17.041
			c-5.778,0-45.591,0-51.405,0c-16.843,0-30.498,13.654-30.498,30.498l-0.537,349.655C20.706,500.222,32.376,511.959,46.813,512
			c0.026,0,0.05,0,0.076,0c14.402,0,26.097-11.654,26.138-26.066l0.547-193.255c0-0.024-0.001-0.049-0.001-0.073h11.273
			l0.014,193.258c0.001,14.436,11.706,26.139,26.142,26.138c14.436-0.001,26.139-11.706,26.138-26.142
			c-0.018-235.12-0.474-225.705-0.474-225.705l-36.482-14.717c-8.118-3.275-18.478-5.891-21.467-18.682l-16.31-72.05l35.193,61.19
			c2.432,4.227,6.21,7.517,10.733,9.341c7.357,2.968,62.223,25.101,70.85,28.582c6.332,2.555,13.172,1.927,18.748-1.174h86.151
			v-0.001c6.138,0,11.113-4.975,11.113-11.113S290.219,230.417,284.081,230.417z"/>
	</g>
</g>
</svg>